<?xml version="1.0" encoding="utf-8"?>
<!-- Generator: Adobe Illustrator 18.1.1, SVG Export Plug-In . SVG Version: 6.00 Build 0)  -->
<svg version="1.1" xmlns="http://www.w3.org/2000/svg" xmlns:xlink="http://www.w3.org/1999/xlink" x="0px" y="0px"
	 viewBox="0 0 70.9 49.6" enable-background="new 0 0 70.9 49.6" xml:space="preserve">
<g id="Layer_2" display="none">
</g>
<g id="Menu">
</g>
<g id="SubMenu" display="none">
</g>
<g id="Grid">
	<g>
		<g>
			<g>
				<path fill="#004494" d="M5.8,40.5c1.7,0,3.1,1.4,3.1,3.1s-1.4,3.1-3.1,3.1c-1.7,0-3.1-1.4-3.1-3.1S4.1,40.5,5.8,40.5 M5.8,38.5
					c-2.8,0-5.1,2.3-5.1,5.1c0,2.8,2.3,5.1,5.1,5.1c2.8,0,5.1-2.3,5.1-5.1C10.8,40.7,8.6,38.5,5.8,38.5L5.8,38.5z"/>
			</g>
		</g>
		<g>
			<g>
				<path fill="#004494" d="M65.1,3c1.7,0,3.1,1.4,3.1,3.1s-1.4,3.1-3.1,3.1c-1.7,0-3.1-1.4-3.1-3.1S63.4,3,65.1,3 M65.1,1
					C62.3,1,60,3.3,60,6.1c0,2.8,2.3,5.1,5.1,5.1c2.8,0,5.1-2.3,5.1-5.1C70.2,3.3,67.9,1,65.1,1L65.1,1z"/>
			</g>
		</g>
		<g>
			<g>
				<path fill="#004494" d="M21.7,19.4c1.7,0,3.1,1.4,3.1,3.1s-1.4,3.1-3.1,3.1c-1.7,0-3.1-1.4-3.1-3.1S20,19.4,21.7,19.4
					 M21.7,17.4c-2.8,0-5.1,2.3-5.1,5.1c0,2.8,2.3,5.1,5.1,5.1c2.8,0,5.1-2.3,5.1-5.1C26.7,19.7,24.5,17.4,21.7,17.4L21.7,17.4z"/>
			</g>
		</g>
		<g>
			<g>
				<path fill="#004494" d="M45.8,27.8c1.7,0,3.1,1.4,3.1,3.1c0,1.7-1.4,3.1-3.1,3.1c-1.7,0-3.1-1.4-3.1-3.1
					C42.7,29.1,44.1,27.8,45.8,27.8 M45.8,25.8c-2.8,0-5.1,2.3-5.1,5.1c0,2.8,2.3,5.1,5.1,5.1c2.8,0,5.1-2.3,5.1-5.1
					C50.8,28,48.6,25.8,45.8,25.8L45.8,25.8z"/>
			</g>
		</g>
		
			<line fill="none" stroke="#004494" stroke-width="2" stroke-linecap="round" stroke-miterlimit="10" x1="9.5" y1="38.6" x2="17.9" y2="27.4"/>
		
			<line fill="none" stroke="#004494" stroke-width="2" stroke-linecap="round" stroke-miterlimit="10" x1="27.8" y1="24.6" x2="39.7" y2="28.8"/>
		
			<line fill="none" stroke="#004494" stroke-width="2" stroke-linecap="round" stroke-miterlimit="10" x1="49.6" y1="25.9" x2="61.2" y2="11.1"/>
	</g>
</g>
<g id="_x31_2-column">
</g>
<g id="X-Series">
</g>
<g id="_x31_2-column-grid">
</g>
<g id="Operator" display="none">
</g>
</svg>
